<svg width="20" height="20" viewBox="0 0 20 20" fill="none" xmlns="http://www.w3.org/2000/svg">
<path d="M10 13.3335V17.5002" stroke="white" stroke-linecap="round" stroke-linejoin="round"/>
<path d="M13.3333 11.6665V17.4998" stroke="white" stroke-linecap="round" stroke-linejoin="round"/>
<path d="M16.6667 8.3335V17.5002" stroke="white" stroke-linecap="round" stroke-linejoin="round"/>
<path d="M18.3333 2.5L11.1283 9.705C11.0896 9.7438 11.0437 9.77459 10.993 9.79559C10.9424 9.8166 10.8881 9.82741 10.8333 9.82741C10.7785 9.82741 10.7243 9.8166 10.6736 9.79559C10.623 9.77459 10.577 9.7438 10.5383 9.705L7.79501 6.96167C7.71687 6.88355 7.61091 6.83967 7.50042 6.83967C7.38994 6.83967 7.28398 6.88355 7.20584 6.96167L1.66667 12.5" stroke="white" stroke-linecap="round" stroke-linejoin="round"/>
<path d="M3.33333 15V17.5" stroke="white" stroke-linecap="round" stroke-linejoin="round"/>
<path d="M6.66667 11.6665V17.4998" stroke="white" stroke-linecap="round" stroke-linejoin="round"/>
</svg>
