<svg width="146" height="24" viewBox="0 0 146 24" fill="none" xmlns="http://www.w3.org/2000/svg">
<path d="M17.424 22.872C17.1893 22.936 16.816 23 16.304 23.064C15.8133 23.128 15.3227 23.16 14.832 23.16C14.3413 23.16 13.904 23.1173 13.52 23.032C13.1573 22.968 12.848 22.84 12.592 22.648C12.336 22.456 12.144 22.1893 12.016 21.848C11.888 21.5067 11.824 21.0587 11.824 20.504V15.512H5.68V22.872C5.44533 22.936 5.072 23 4.56 23.064C4.06933 23.128 3.57867 23.16 3.088 23.16C2.59733 23.16 2.16 23.1173 1.776 23.032C1.41333 22.968 1.104 22.84 0.848 22.648C0.592 22.456 0.4 22.1893 0.272 21.848C0.144 21.5067 0.0800002 21.0587 0.0800002 20.504V3.608C0.314667 3.56533 0.688 3.512 1.2 3.448C1.712 3.36267 2.20267 3.32 2.672 3.32C3.16267 3.32 3.58933 3.36267 3.952 3.448C4.336 3.512 4.656 3.64 4.912 3.832C5.168 4.024 5.36 4.29067 5.488 4.632C5.616 4.97333 5.68 5.42133 5.68 5.976V11.096H11.824V3.608C12.0587 3.56533 12.432 3.512 12.944 3.448C13.456 3.36267 13.9467 3.32 14.416 3.32C14.9067 3.32 15.3333 3.36267 15.696 3.448C16.08 3.512 16.4 3.64 16.656 3.832C16.912 4.024 17.104 4.29067 17.232 4.632C17.36 4.97333 17.424 5.42133 17.424 5.976V22.872ZM27.82 19.544C28.1827 19.544 28.5773 19.512 29.004 19.448C29.452 19.3627 29.7827 19.256 29.996 19.128V16.568L27.692 16.76C27.0947 16.8027 26.604 16.9307 26.22 17.144C25.836 17.3573 25.644 17.6773 25.644 18.104C25.644 18.5307 25.804 18.8827 26.124 19.16C26.4653 19.416 27.0307 19.544 27.82 19.544ZM27.564 6.968C28.716 6.968 29.7613 7.08533 30.7 7.32C31.66 7.55467 32.4707 7.91733 33.132 8.408C33.8147 8.87733 34.3373 9.48533 34.7 10.232C35.0627 10.9573 35.244 11.8213 35.244 12.824V19.992C35.244 20.5467 35.084 21.0053 34.764 21.368C34.4653 21.7093 34.1027 22.008 33.676 22.264C32.2893 23.096 30.3373 23.512 27.82 23.512C26.6893 23.512 25.6653 23.4053 24.748 23.192C23.852 22.9787 23.0733 22.6587 22.412 22.232C21.772 21.8053 21.2707 21.2613 20.908 20.6C20.5667 19.9387 20.396 19.1707 20.396 18.296C20.396 16.824 20.8333 15.6933 21.708 14.904C22.5827 14.1147 23.9373 13.624 25.772 13.432L29.964 12.984V12.76C29.964 12.1413 29.6867 11.704 29.132 11.448C28.5987 11.1707 27.82 11.032 26.796 11.032C25.9853 11.032 25.196 11.1173 24.428 11.288C23.66 11.4587 22.9667 11.672 22.348 11.928C22.0707 11.736 21.836 11.448 21.644 11.064C21.452 10.6587 21.356 10.2427 21.356 9.816C21.356 9.26133 21.484 8.824 21.74 8.504C22.0173 8.16267 22.4333 7.87467 22.988 7.64C23.6067 7.40533 24.332 7.23467 25.164 7.128C26.0173 7.02133 26.8173 6.968 27.564 6.968ZM38.6343 2.168C38.8476 2.104 39.1889 2.04 39.6583 1.976C40.1276 1.89067 40.6076 1.848 41.0983 1.848C41.5676 1.848 41.9836 1.88 42.3463 1.944C42.7303 2.008 43.0503 2.136 43.3063 2.328C43.5623 2.52 43.7543 2.78667 43.8823 3.128C44.0103 3.448 44.0743 3.87467 44.0743 4.408V7.544C44.6076 7.33067 45.1089 7.18133 45.5783 7.096C46.0689 7.01067 46.6023 6.968 47.1783 6.968C48.2023 6.968 49.1729 7.14933 50.0903 7.512C51.0076 7.87467 51.8183 8.408 52.5223 9.112C53.2263 9.79467 53.7809 10.648 54.1863 11.672C54.5916 12.696 54.7943 13.88 54.7943 15.224C54.7943 16.6107 54.5809 17.8267 54.1543 18.872C53.7489 19.896 53.1729 20.7493 52.4263 21.432C51.6796 22.1147 50.7623 22.6373 49.6743 23C48.6076 23.3413 47.4236 23.512 46.1223 23.512C44.7143 23.512 43.5196 23.3413 42.5383 23C41.5569 22.68 40.7249 22.2747 40.0423 21.784C39.1036 21.1227 38.6343 20.2693 38.6343 19.224V2.168ZM46.1223 19.224C47.1036 19.224 47.8609 18.8933 48.3943 18.232C48.9489 17.5493 49.2263 16.5467 49.2263 15.224C49.2263 13.88 48.9489 12.8773 48.3943 12.216C47.8396 11.5547 47.0929 11.224 46.1543 11.224C45.7276 11.224 45.3543 11.2667 45.0343 11.352C44.7356 11.4373 44.4049 11.5653 44.0423 11.736V18.712C44.2769 18.8613 44.5543 18.9893 44.8743 19.096C45.2156 19.1813 45.6316 19.224 46.1223 19.224ZM57.3173 3.128C57.3173 2.31733 57.5839 1.63467 58.1173 1.08C58.6719 0.525332 59.3973 0.247999 60.2933 0.247999C61.1893 0.247999 61.9039 0.525332 62.4373 1.08C62.9919 1.63467 63.2693 2.31733 63.2693 3.128C63.2693 3.93867 62.9919 4.62133 62.4373 5.176C61.9039 5.73067 61.1893 6.008 60.2933 6.008C59.3973 6.008 58.6719 5.73067 58.1173 5.176C57.5839 4.62133 57.3173 3.93867 57.3173 3.128ZM63.0133 22.968C62.7786 23.0107 62.4266 23.064 61.9573 23.128C61.5093 23.2133 61.0506 23.256 60.5813 23.256C60.1119 23.256 59.6853 23.224 59.3013 23.16C58.9386 23.096 58.6293 22.968 58.3733 22.776C58.1173 22.584 57.9146 22.328 57.7653 22.008C57.6373 21.6667 57.5733 21.2293 57.5733 20.696V7.672C57.8079 7.62933 58.1493 7.576 58.5973 7.512C59.0666 7.42667 59.5359 7.384 60.0052 7.384C60.4746 7.384 60.8906 7.416 61.2533 7.48C61.6373 7.544 61.9573 7.672 62.2133 7.864C62.4693 8.056 62.6613 8.32267 62.7893 8.664C62.9386 8.984 63.0133 9.41067 63.0133 9.944V22.968ZM71.9165 17.656C71.9165 18.2107 72.0872 18.6053 72.4285 18.84C72.7912 19.0747 73.2925 19.192 73.9325 19.192C74.2525 19.192 74.5832 19.1707 74.9245 19.128C75.2658 19.064 75.5645 18.9893 75.8205 18.904C76.0125 19.1387 76.1725 19.4053 76.3005 19.704C76.4498 19.9813 76.5245 20.3227 76.5245 20.728C76.5245 21.5387 76.2152 22.2 75.5965 22.712C74.9992 23.224 73.9325 23.48 72.3965 23.48C70.5192 23.48 69.0685 23.0533 68.0445 22.2C67.0418 21.3467 66.5405 19.96 66.5405 18.04V4.344C66.7752 4.28 67.1058 4.216 67.5325 4.152C67.9805 4.06667 68.4498 4.024 68.9405 4.024C69.8792 4.024 70.6045 4.19467 71.1165 4.536C71.6498 4.856 71.9165 5.54933 71.9165 6.616V8.664H76.1085C76.2365 8.89867 76.3538 9.19733 76.4605 9.56C76.5885 9.90133 76.6525 10.2853 76.6525 10.712C76.6525 11.4587 76.4818 12.0027 76.1405 12.344C75.8205 12.664 75.3832 12.824 74.8285 12.824H71.9165V17.656Z" fill="white"/>
<path d="M85.273 16.728V22.872C85.0383 22.936 84.665 23 84.153 23.064C83.6623 23.128 83.1717 23.16 82.681 23.16C82.1903 23.16 81.753 23.1173 81.369 23.032C81.0063 22.968 80.697 22.84 80.441 22.648C80.2063 22.456 80.025 22.1893 79.897 21.848C79.769 21.5067 79.705 21.0587 79.705 20.504V5.432C79.705 4.984 79.8223 4.64267 80.057 4.408C80.313 4.152 80.6543 3.94933 81.081 3.8C81.8063 3.544 82.649 3.36267 83.609 3.256C84.569 3.128 85.593 3.064 86.681 3.064C89.625 3.064 91.8437 3.68267 93.337 4.92C94.8303 6.15733 95.577 7.832 95.577 9.944C95.577 11.2667 95.2357 12.3973 94.553 13.336C93.8703 14.2747 93.0597 15 92.121 15.512C92.889 16.5573 93.6463 17.5387 94.393 18.456C95.1397 19.3733 95.7263 20.2053 96.153 20.952C95.9397 21.6987 95.545 22.2747 94.969 22.68C94.4143 23.064 93.785 23.256 93.081 23.256C92.6117 23.256 92.2063 23.2027 91.865 23.096C91.5237 22.9893 91.225 22.84 90.969 22.648C90.713 22.456 90.4783 22.2213 90.265 21.944C90.0517 21.6667 89.849 21.368 89.657 21.048L86.969 16.728H85.273ZM87.289 12.472C88.0997 12.472 88.7397 12.2693 89.209 11.864C89.6783 11.4373 89.913 10.8187 89.913 10.008C89.913 9.19733 89.6463 8.58933 89.113 8.184C88.601 7.75733 87.7797 7.544 86.649 7.544C86.329 7.544 86.073 7.55467 85.881 7.576C85.689 7.59733 85.4757 7.62933 85.241 7.672V12.472H87.289ZM114.416 15.224C114.416 16.5467 114.214 17.7307 113.808 18.776C113.403 19.8 112.827 20.664 112.08 21.368C111.355 22.072 110.48 22.6053 109.456 22.968C108.432 23.3307 107.291 23.512 106.032 23.512C104.774 23.512 103.632 23.32 102.608 22.936C101.584 22.552 100.699 22.008 99.9523 21.304C99.2269 20.5787 98.6616 19.704 98.2563 18.68C97.8509 17.656 97.6483 16.504 97.6483 15.224C97.6483 13.9653 97.8509 12.824 98.2563 11.8C98.6616 10.776 99.2269 9.912 99.9523 9.208C100.699 8.48267 101.584 7.928 102.608 7.544C103.632 7.16 104.774 6.968 106.032 6.968C107.291 6.968 108.432 7.17067 109.456 7.576C110.48 7.96 111.355 8.51467 112.08 9.24C112.827 9.944 113.403 10.808 113.808 11.832C114.214 12.856 114.416 13.9867 114.416 15.224ZM103.216 15.224C103.216 16.5253 103.462 17.528 103.952 18.232C104.464 18.9147 105.168 19.256 106.064 19.256C106.96 19.256 107.643 18.904 108.112 18.2C108.603 17.496 108.848 16.504 108.848 15.224C108.848 13.944 108.603 12.9627 108.112 12.28C107.622 11.576 106.928 11.224 106.032 11.224C105.136 11.224 104.443 11.576 103.952 12.28C103.462 12.9627 103.216 13.944 103.216 15.224ZM133.166 15.224C133.166 16.5467 132.964 17.7307 132.558 18.776C132.153 19.8 131.577 20.664 130.83 21.368C130.105 22.072 129.23 22.6053 128.206 22.968C127.182 23.3307 126.041 23.512 124.782 23.512C123.524 23.512 122.382 23.32 121.358 22.936C120.334 22.552 119.449 22.008 118.702 21.304C117.977 20.5787 117.412 19.704 117.006 18.68C116.601 17.656 116.398 16.504 116.398 15.224C116.398 13.9653 116.601 12.824 117.006 11.8C117.412 10.776 117.977 9.912 118.702 9.208C119.449 8.48267 120.334 7.928 121.358 7.544C122.382 7.16 123.524 6.968 124.782 6.968C126.041 6.968 127.182 7.17067 128.206 7.576C129.23 7.96 130.105 8.51467 130.83 9.24C131.577 9.944 132.153 10.808 132.558 11.832C132.964 12.856 133.166 13.9867 133.166 15.224ZM121.966 15.224C121.966 16.5253 122.212 17.528 122.702 18.232C123.214 18.9147 123.918 19.256 124.814 19.256C125.71 19.256 126.393 18.904 126.862 18.2C127.353 17.496 127.598 16.504 127.598 15.224C127.598 13.944 127.353 12.9627 126.862 12.28C126.372 11.576 125.678 11.224 124.782 11.224C123.886 11.224 123.193 11.576 122.702 12.28C122.212 12.9627 121.966 13.944 121.966 15.224ZM141.26 17.656C141.26 18.2107 141.431 18.6053 141.772 18.84C142.135 19.0747 142.636 19.192 143.276 19.192C143.596 19.192 143.927 19.1707 144.268 19.128C144.61 19.064 144.908 18.9893 145.164 18.904C145.356 19.1387 145.516 19.4053 145.644 19.704C145.794 19.9813 145.868 20.3227 145.868 20.728C145.868 21.5387 145.559 22.2 144.94 22.712C144.343 23.224 143.276 23.48 141.74 23.48C139.863 23.48 138.412 23.0533 137.388 22.2C136.386 21.3467 135.884 19.96 135.884 18.04V4.344C136.119 4.28 136.45 4.216 136.876 4.152C137.324 4.06667 137.794 4.024 138.284 4.024C139.223 4.024 139.948 4.19467 140.46 4.536C140.994 4.856 141.26 5.54933 141.26 6.616V8.664H145.452C145.58 8.89867 145.698 9.19733 145.804 9.56C145.932 9.90133 145.996 10.2853 145.996 10.712C145.996 11.4587 145.826 12.0027 145.484 12.344C145.164 12.664 144.727 12.824 144.172 12.824H141.26V17.656Z" fill="#33C75A"/>
</svg>
