<svg width="24" height="28" viewBox="0 0 24 28" fill="none" xmlns="http://www.w3.org/2000/svg">
<path d="M20 15.1198C20 20.7198 16.5 23.5198 12.34 25.1438C12.1222 25.2265 11.8855 25.2225 11.67 25.1326C7.5 23.5198 4 20.7198 4 15.1198V7.27982C4 6.98278 4.10536 6.6979 4.29289 6.48786C4.48043 6.27782 4.73478 6.15982 5 6.15982C7 6.15982 9.5 4.81582 11.24 3.11342C11.4519 2.9107 11.7214 2.79932 12 2.79932C12.2786 2.79932 12.5481 2.9107 12.76 3.11342C14.51 4.82702 17 6.15982 19 6.15982C19.2652 6.15982 19.5196 6.27782 19.7071 6.48786C19.8946 6.6979 20 6.98278 20 7.27982V15.1198Z" stroke="white" stroke-linecap="round" stroke-linejoin="round"/>
</svg>
